HIERARCHY
ROOT Hips
{
	OFFSET 0.000000 0.000000 0.000000
	CHANNELS 6 Xposition Yposition Zposition Zrotation Yrotation Xrotation 
	JOINT LHipJoint
	{
		OFFSET 0.000000 0.000000 0.000000
		CHANNELS 3 Zrotation Yrotation Xrotation
		JOINT LeftUpLeg
		{
			OFFSET 1.363060 -1.794630 0.839290
			CHANNELS 3 Zrotation Yrotation Xrotation
			JOINT LeftLeg
			{
				OFFSET 2.448110 -6.726130 0.000000
				CHANNELS 3 Zrotation Yrotation Xrotation
				JOINT LeftFoot
				{
					OFFSET 2.562200 -7.039590 0.000000
					CHANNELS 3 Zrotation Yrotation Xrotation
					JOINT LeftToeBase
					{
						OFFSET 0.157640 -0.433110 2.322550
						CHANNELS 3 Zrotation Yrotation Xrotation
						End Site
						{
							OFFSET 0.000000 0.000000 0.000000
						}
					}
				}
			}
		}
	}
	JOINT RHipJoint
	{
		OFFSET 0.000000 0.000000 0.000000
		CHANNELS 3 Zrotation Yrotation Xrotation
		JOINT RightUpLeg
		{
			OFFSET -1.305520 -1.794630 0.839290
			CHANNELS 3 Zrotation Yrotation Xrotation
			JOINT RightLeg
			{
				OFFSET -2.542530 -6.985550 0.000000
				CHANNELS 3 Zrotation Yrotation Xrotation
				JOINT RightFoot
				{
					OFFSET -2.568260 -7.056230 0.000000
					CHANNELS 3 Zrotation Yrotation Xrotation
					JOINT RightToeBase
					{
						OFFSET -0.164730 -0.452590 2.363150
						CHANNELS 3 Zrotation Yrotation Xrotation
						End Site
						{
							OFFSET 0.000000 0.000000 0.000000
						}
					}
				}
			}
		}
	}
	JOINT LowerBack
	{
		OFFSET 0.000000 0.000000 0.000000
		CHANNELS 3 Zrotation Yrotation Xrotation
		JOINT Spine
		{
			OFFSET 0.028270 2.035590 -0.193380
			CHANNELS 3 Zrotation Yrotation Xrotation
			JOINT Spine1
			{
				OFFSET 0.056720 2.048850 -0.042750
				CHANNELS 3 Zrotation Yrotation Xrotation
				JOINT Neck
				{
					OFFSET 0.000000 0.000000 0.000000
					CHANNELS 3 Zrotation Yrotation Xrotation
					JOINT Neck1
					{
						OFFSET -0.054170 1.746240 0.172020
						CHANNELS 3 Zrotation Yrotation Xrotation
						JOINT Head
						{
							OFFSET 0.104070 1.761360 -0.123970
							CHANNELS 3 Zrotation Yrotation Xrotation
							End Site
							{
								OFFSET 0.000000 0.000000 0.000000
							}
						}
					}
				}
				JOINT LeftShoulder
				{
					OFFSET 0.000000 0.000000 0.000000
					CHANNELS 3 Zrotation Yrotation Xrotation
					JOINT LeftArm
					{
						OFFSET 3.362410 1.200890 -0.311210
						CHANNELS 3 Zrotation Yrotation Xrotation
						JOINT LeftForeArm
						{
							OFFSET 4.983000 -0.000000 -0.000000
							CHANNELS 3 Zrotation Yrotation Xrotation
							JOINT LeftHand
							{
								OFFSET 3.483560 -0.000000 -0.000000
								CHANNELS 3 Zrotation Yrotation Xrotation
								JOINT LeftFingerBase
								{
									OFFSET 0.000000 0.000000 0.000000
									CHANNELS 3 Zrotation Yrotation Xrotation
									JOINT LeftHandIndex1
									{
										OFFSET 0.715260 -0.000000 -0.000000
										CHANNELS 3 Zrotation Yrotation Xrotation
										End Site
										{
											OFFSET 0.000000 0.000000 0.000000
										}
									}
								}
								JOINT LThumb
								{
									OFFSET 0.000000 0.000000 0.000000
									CHANNELS 3 Zrotation Yrotation Xrotation
									End Site
									{
										OFFSET 0.000000 0.000000 0.000000
									}
								}
							}
						}
					}
				}
				JOINT RightShoulder
				{
					OFFSET 0.000000 0.000000 0.000000
					CHANNELS 3 Zrotation Yrotation Xrotation
					JOINT RightArm
					{
						OFFSET -3.136600 1.374050 -0.404650
						CHANNELS 3 Zrotation Yrotation Xrotation
						JOINT RightForeArm
						{
							OFFSET -5.241900 -0.000000 -0.000000
							CHANNELS 3 Zrotation Yrotation Xrotation
							JOINT RightHand
							{
								OFFSET -3.444170 -0.000000 -0.000000
								CHANNELS 3 Zrotation Yrotation Xrotation
								JOINT RightFingerBase
								{
									OFFSET 0.000000 0.000000 0.000000
									CHANNELS 3 Zrotation Yrotation Xrotation
									JOINT RightHandIndex1
									{
										OFFSET -0.622530 -0.000000 -0.000000
										CHANNELS 3 Zrotation Yrotation Xrotation
										End Site
										{
											OFFSET 0.000000 0.000000 0.000000
										}
									}
								}
								JOINT RThumb
								{
									OFFSET 0.000000 0.000000 0.000000
									CHANNELS 3 Zrotation Yrotation Xrotation
									End Site
									{
										OFFSET 0.000000 0.000000 0.000000
									}
								}
							}
						}
					}
				}
			}
		}
	}
}
MOTION
Frames: 11
Frame Time: 0.008333
-7.887933 16.772490 -2.154435 164.494233 87.275197 169.974669 -10.964312 5.823633 0.575730 -3.618526 9.586159 6.256037 -1.344420 2.208186 27.739402 -0.190668 -11.992373 11.615713 -3.376700 0.000000 -83.831500 8.653167 -0.612366 2.570517 15.549195 0.509916 -30.276791 2.103752 -0.208681 17.258336 -2.802400 -12.586913 -4.545936 -1.877200 0.000000 -9.935201 5.746928 -7.071426 -4.687379 1.239704 -7.547765 -3.653126 -4.356027 -7.602714 0.823722 10.294696 -20.524972 -9.978836 -1.975244 -0.119823 -0.505359 0.000000 0.000000 0.000000 7.512386 0.854885 -0.816840 -24.129873 -24.569405 -14.659402 -0.385729 -75.975725 -0.118067 11.037514 -1.169455 -0.174111 -0.057996 0.627124 -0.000000 0.000000 0.000000 0.000000 0.000000 0.000000 0.000000 12.447409 -20.674420 1.721490 61.032128 -30.150511 -22.914991 4.132942 25.701060 -0.007760 -0.444261 -3.033832 0.015993 0.153941 0.000310 -0.000000 0.000000 0.000000 0.000000 0.000000 0.000000 0.000000 
-7.718215 16.751548 -2.147267 169.929730 87.243805 175.431684 -11.232747 5.919790 0.591013 -2.617702 10.071178 4.842510 -1.176476 2.361623 30.514276 -0.098064 -13.179570 13.091406 -4.066800 0.000000 -84.122899 8.519901 -0.628421 2.606503 15.900050 0.940527 -30.638144 2.020490 -0.364681 19.281071 -2.951350 -12.987895 -5.494130 -1.680000 0.000000 -6.956800 6.042747 -6.928862 -4.812045 1.252801 -7.431327 -3.698096 -4.559275 -7.477399 0.764564 10.527396 -20.280915 -9.972367 -2.152138 -0.135335 -0.503607 0.000000 0.000000 0.000000 7.160962 0.740596 -0.793487 -25.583908 -24.321513 -13.993356 -0.443098 -76.382027 -0.117523 11.124027 -1.273041 -0.185064 -0.062489 0.622064 -0.000000 0.000000 0.000000 0.000000 0.000000 0.000000 0.000000 13.235361 -20.387928 1.697925 61.210427 -29.293659 -22.496940 4.119698 25.623795 -0.007528 -0.469302 -3.034950 0.016590 0.149594 0.001693 -0.000000 0.000000 0.000000 0.000000 0.000000 0.000000 0.000000 
-7.555349 16.730221 -2.140899 175.527989 87.224332 -178.959418 -11.534060 5.974662 0.573855 -1.591753 10.595127 3.340870 -0.996202 2.509238 33.421698 0.016528 -14.152266 14.587955 -4.763900 -0.000001 -83.481100 8.343108 -0.648548 2.631055 16.324229 1.410221 -31.008207 1.941282 -0.522702 21.373417 -3.108046 -13.384004 -6.571526 -1.431200 0.000000 -4.245900 6.341330 -6.780840 -4.876337 1.259316 -7.309276 -3.733052 -4.787048 -7.347371 0.693232 10.799985 -19.952475 -9.956945 -2.344491 -0.152185 -0.500586 0.000000 0.000000 0.000000 6.814562 0.602695 -0.754286 -27.064973 -23.996421 -13.322958 -0.499988 -76.747503 -0.116847 11.216654 -1.389686 -0.197517 -0.067659 0.616351 -0.000000 0.000000 0.000000 0.000000 0.000000 0.000000 0.000000 14.101496 -20.012707 1.679939 61.389549 -28.297553 -22.107185 4.101092 25.445266 -0.007113 -0.556283 -2.971597 0.018387 0.144899 0.002449 -0.000000 0.000000 0.000000 0.000000 0.000000 0.000000 0.000000 
-7.400183 16.708309 -2.134861 -178.887363 87.190818 -173.400396 -11.853846 5.978439 0.519128 -0.573076 11.124872 1.816647 -0.805856 2.652418 36.417721 0.145857 -14.755233 16.033383 -5.381900 -0.000001 -81.955000 8.132554 -0.677698 2.627230 16.809866 1.850325 -31.322169 1.870663 -0.680296 23.463432 -3.262716 -13.742907 -7.751027 -1.130500 -0.000000 -1.838800 6.618925 -6.638138 -4.854144 1.255245 -7.190173 -3.752516 -5.035814 -7.221956 0.607556 11.110005 -19.538140 -9.926784 -2.550295 -0.170195 -0.494911 0.000000 0.000000 0.000000 6.485569 0.430584 -0.699714 -28.566239 -23.584284 -12.660724 -0.554579 -77.060459 -0.116125 11.324398 -1.520509 -0.211870 -0.073498 0.609967 -0.000000 0.000000 0.000000 0.000000 0.000000 0.000000 0.000000 15.038148 -19.554565 1.668355 61.567424 -27.149549 -21.719650 4.075637 25.148460 -0.006539 -0.719523 -2.845638 0.021586 0.139837 0.002615 -0.000000 0.000000 0.000000 0.000000 0.000000 0.000000 0.000000 
-7.252809 16.685749 -2.129089 -173.277097 87.124535 -167.862912 -12.188249 5.926575 0.425490 0.445195 11.654607 0.292588 -0.606430 2.793614 39.481155 0.283718 -14.869256 17.355330 -5.828500 -0.000000 -79.693300 7.889423 -0.723301 2.590863 17.366196 2.230376 -31.520717 1.814683 -0.830982 25.455725 -3.412165 -14.064802 -8.990990 179.210300 -0.000001 -0.250999 6.878235 -6.507341 -4.739752 1.242966 -7.080365 -3.756325 -5.299183 -7.108172 0.506189 11.443472 -19.039661 -9.874341 -2.765729 -0.189082 -0.484520 0.000000 0.000000 0.000000 6.175771 0.209809 -0.630194 -30.088421 -23.064961 -12.017211 -0.606861 -77.313835 -0.115440 11.457247 -1.667655 -0.228429 -0.079919 0.602869 -0.000000 0.000000 0.000000 0.000000 0.000000 0.000000 0.000000 16.016409 -19.021353 1.665465 61.746727 -25.838686 -21.326925 4.042553 24.713864 -0.005852 -0.964443 -2.667477 0.025783 0.134390 0.002183 -0.000000 0.000000 0.000000 0.000000 0.000000 0.000000 0.000000 
-7.113135 16.662521 -2.123084 -167.873405 87.003111 -162.591866 -12.520315 5.816634 0.294318 1.449290 12.163339 -1.198763 -0.398579 2.935102 42.580619 0.425724 -14.383670 18.481267 -6.006500 0.000000 -76.862700 7.628698 -0.788908 2.515001 17.982822 2.504281 -31.562322 1.777448 -0.972637 27.284599 -3.550633 -14.334005 -10.261211 179.582400 0.000000 -2.031200 7.111460 -6.396188 -4.527214 1.222536 -6.986618 -3.743343 -5.571273 -7.013054 0.389156 11.791856 -18.464384 -9.793659 -2.986949 -0.208507 -0.467768 0.000000 0.000000 0.000000 5.890170 -0.066219 -0.546869 -31.629394 -22.436833 -11.396557 -0.655631 -77.486665 -0.114866 11.625771 -1.832995 -0.247997 -0.086845 0.594988 -0.000000 0.000000 0.000000 0.000000 0.000000 0.000000 0.000000 17.017601 -18.428149 1.671515 61.928618 -24.358164 -20.917354 4.000851 24.131390 -0.005116 -1.292350 -2.451991 0.030579 0.128557 0.001177 -0.000000 0.000000 0.000000 0.000000 0.000000 0.000000 0.000000 
-6.980621 16.638739 -2.116190 -162.897906 86.816994 -157.813262 -12.833391 5.652720 0.130471 2.428367 12.635392 -2.640401 -0.184009 3.079693 45.686997 0.571028 -13.230802 19.335488 -5.838799 -0.000000 -73.617400 7.367420 -0.873521 2.396425 18.647780 2.638378 -31.424477 1.761210 -1.103386 28.903804 -3.673390 -14.538655 -11.532508 179.974300 0.000001 -3.518400 7.315628 -6.308001 -4.220010 1.194802 -6.911647 -3.714146 -5.846131 -6.939154 0.258173 12.146091 -17.823709 -9.680281 -3.209676 -0.228077 -0.443333 0.000000 0.000000 0.000000 5.630999 -0.397879 -0.451299 -33.187094 -21.704826 -10.797855 -0.700015 -77.552084 -0.114452 11.839782 -2.016668 -0.270878 -0.094165 0.586184 -0.000000 0.000000 0.000000 0.000000 0.000000 0.000000 0.000000 18.022438 -17.792072 1.685971 62.114436 -22.705045 -20.484061 3.949928 23.398078 -0.004392 -1.698514 -2.214476 0.035374 0.122369 -0.000402 -0.000000 0.000000 0.000000 0.000000 0.000000 0.000000 0.000000 
-6.854446 16.614567 -2.107923 -158.481293 86.569010 -153.654578 -13.117437 5.442872 -0.059223 3.375544 13.062016 -4.029708 0.034886 3.230130 48.771474 0.722902 -11.397937 19.854530 -5.291100 0.000000 -70.087200 7.117306 -0.972764 2.237434 19.347654 2.624613 -31.100005 1.765871 -1.220511 30.280532 -3.779131 -14.680605 -12.775906 -179.628101 0.000000 -4.734200 7.490767 -6.241934 -3.830094 1.161251 -6.854307 -3.670508 -6.117150 -6.884938 0.117795 12.496108 -17.134771 -9.533253 -3.428817 -0.247299 -0.410807 0.000000 0.000000 0.000000 5.395841 -0.774800 -0.345747 -34.761052 -20.886673 -10.214402 -0.739755 -77.473432 -0.114221 12.108334 -2.221512 -0.297974 -0.101719 0.576326 -0.000000 0.000000 0.000000 0.000000 0.000000 0.000000 0.000000 19.009414 -17.133580 1.707550 62.308682 -20.875807 -20.029583 3.889610 22.519214 -0.003760 -2.169661 -1.976749 0.039568 0.115903 -0.002569 -0.000000 0.000000 0.000000 0.000000 0.000000 0.000000 0.000000 
-6.733632 16.590267 -2.097175 -154.872195 86.276430 -150.359565 -13.356753 5.201236 -0.265231 4.256012 13.426448 -5.362168 0.253911 3.388805 51.798204 0.886099 -8.920869 19.978908 -4.375900 0.000000 -66.321600 6.899574 -1.075972 2.037794 20.044009 2.441008 -30.608756 1.787509 -1.323726 31.425078 -3.862827 -14.742781 -13.976024 -179.234500 0.000000 -5.715300 7.616245 -6.195960 -3.370968 1.118388 -6.811017 -3.613926 -6.380058 -6.846007 -0.028323 12.838890 -16.412353 -9.351599 -3.641231 -0.265854 -0.369737 0.000000 0.000000 0.000000 5.189660 -1.191874 -0.232371 -36.346406 -19.990560 -9.636587 -0.773932 -77.216624 -0.114115 12.436194 -2.445548 -0.329589 -0.109344 0.565093 -0.000000 0.000000 0.000000 0.000000 0.000000 0.000000 0.000000 19.973520 -16.468549 1.733194 62.514207 -18.883856 -19.549385 3.819595 21.520001 -0.003281 -2.691066 -1.756982 0.042960 0.109283 -0.005301 -0.000000 0.000000 0.000000 0.000000 0.000000 0.000000 0.000000 
-6.616948 16.566157 -2.083963 -151.923287 85.953901 -147.765982 -13.559267 4.936259 -0.479294 5.076133 13.732907 -6.653713 0.470374 3.555976 54.739502 1.065618 -5.916025 19.661306 -3.170100 -0.000000 -62.325100 6.707622 -1.181044 1.809168 20.731783 2.122581 -29.968749 1.823654 -1.410761 32.332408 -3.929131 -14.748850 -15.108410 -178.858500 -0.000000 -6.500799 7.698640 -6.164239 -2.865834 1.069281 -6.776710 -3.547413 -6.628014 -6.816923 -0.170717 13.162777 -15.677474 -9.141940 -3.841507 -0.283202 -0.321759 0.000000 0.000000 0.000000 4.998365 -1.615163 -0.113091 -37.940960 -19.066262 -9.047226 -0.803957 -76.726011 -0.114059 12.824878 -2.691107 -0.366524 -0.116824 0.552354 -0.000000 0.000000 0.000000 0.000000 0.000000 0.000000 0.000000 20.891825 -15.815763 1.759268 62.738215 -16.729529 -19.062752 3.740868 20.424224 -0.003003 -3.238344 -1.571902 0.045751 0.102696 -0.008621 -0.000000 0.000000 0.000000 0.000000 0.000000 0.000000 0.000000 
-6.503232 16.542719 -2.067479 -149.706104 85.625040 -145.931073 -13.719429 4.661126 -0.691192 5.802676 13.971476 -7.912875 0.680231 3.730403 57.558683 1.264035 -2.535384 18.879519 -1.790599 0.000000 -58.073300 6.552316 -1.279963 1.558934 21.372733 1.679091 -29.225065 1.868330 -1.482956 33.042508 -3.977095 -14.694963 -16.169315 -178.506100 0.000000 -7.146200 7.717617 -6.142496 -2.336763 1.010638 -6.746340 -3.473663 -6.857697 -6.791877 -0.304078 13.464446 -14.943939 -8.907501 -4.027429 -0.299138 -0.267519 0.000000 0.000000 0.000000 4.822039 -2.034593 0.011005 -39.538125 -18.126354 -8.433347 -0.830341 -75.964634 -0.113855 13.268619 -2.952404 -0.408382 -0.123937 0.537696 -0.000000 0.000000 0.000000 0.000000 0.000000 0.000000 0.000000 21.761176 -15.185028 1.781371 62.986782 -14.436527 -18.572914 3.654117 19.275837 -0.002949 -3.791878 -1.431643 0.048341 0.096359 -0.012462 -0.000000 0.000000 0.000000 0.000000 0.000000 0.000000 0.000000 
